<svg xmlns="http://www.w3.org/2000/svg" width="1600" height="900" viewBox="0 0 1600 900" role="img" aria-labelledby="title desc"><title id="title">Agent Orchestration Lab Mission Control</title><desc id="desc">Dark mission control dashboard showing orchestration analytics, specialized agents, tool permission matrix, and run status.</desc><defs><linearGradient id="bg" x1="0" x2="1"><stop offset="0" stop-color="#07101a"/><stop offset="1" stop-color="#0b1220"/></linearGradient><linearGradient id="cyan" x1="0" x2="1"><stop offset="0" stop-color="#58dcff"/><stop offset="1" stop-color="#8be7ff"/></linearGradient><filter id="glow"><feGaussianBlur stdDeviation="4" result="b"/><feMerge><feMergeNode in="b"/><feMergeNode in="SourceGraphic"/></feMerge></filter></defs><rect width="1600" height="900" fill="url(#bg)"/><rect x="35" y="34" width="1530" height="832" rx="24" fill="#0a1320" stroke="#203149"/><text x="70" y="82" fill="#58dcff" font-family="Arial,Helvetica,sans-serif" font-size="18" font-weight="700" letter-spacing="3">RUN ANALYTICS</text><text x="70" y="122" fill="#f4f7fb" font-family="Arial,Helvetica,sans-serif" font-size="34" font-weight="800">Fleet-wide Orchestration Telemetry</text><g font-family="Arial,Helvetica,sans-serif"><g><rect x="70" y="155" width="225" height="135" rx="16" fill="#0d1725" stroke="#26364b"/><text x="92" y="188" fill="#8291a7" font-size="15">Total Runs</text><text x="92" y="245" fill="#f4f7fb" font-size="34" font-weight="800">8</text><text x="92" y="270" fill="#8291a7" font-size="13">4 complete · 4 recovered</text></g><g><rect x="312" y="155" width="225" height="135" rx="16" fill="#0d1725" stroke="#26364b"/><text x="334" y="188" fill="#8291a7" font-size="15">Average Runtime</text><text x="334" y="245" fill="#f4f7fb" font-size="31" font-weight="800">58.715 ms</text><text x="334" y="270" fill="#8291a7" font-size="13">Across recorded runs</text></g><g><rect x="554" y="155" width="225" height="135" rx="16" fill="#0d1725" stroke="#26364b"/><text x="576" y="188" fill="#8291a7" font-size="15">Tool Calls</text><text x="576" y="245" fill="#f4f7fb" font-size="34" font-weight="800">36</text><text x="576" y="270" fill="#8291a7" font-size="13">1 failed call</text></g><g><rect x="796" y="155" width="225" height="135" rx="16" fill="#0d1725" stroke="#26364b"/><text x="818" y="188" fill="#8291a7" font-size="15">Retries</text><text x="818" y="245" fill="#f4f7fb" font-size="34" font-weight="800">1</text><text x="818" y="270" fill="#8291a7" font-size="13">Second-attempt executions</text></g><g><rect x="1038" y="155" width="225" height="135" rx="16" fill="#0d1725" stroke="#26364b"/><text x="1060" y="188" fill="#8291a7" font-size="15">Recoveries</text><text x="1060" y="245" fill="#f4f7fb" font-size="34" font-weight="800">4</text><text x="1060" y="270" fill="#8291a7" font-size="13">Recovered workflow events</text></g><g><rect x="1280" y="155" width="225" height="135" rx="16" fill="#0d1725" stroke="#26364b"/><text x="1302" y="188" fill="#8291a7" font-size="15">Blocked Actions</text><text x="1302" y="245" fill="#f4f7fb" font-size="34" font-weight="800">3</text><text x="1302" y="270" fill="#8291a7" font-size="13">Guardrail interceptions</text></g></g><rect x="70" y="325" width="735" height="330" rx="18" fill="#0c1624" stroke="#26364b"/><text x="95" y="365" fill="#f4f7fb" font-family="Arial,Helvetica,sans-serif" font-size="29" font-weight="800">Specialized Agents</text><text x="95" y="393" fill="#58dcff" font-family="Arial,Helvetica,sans-serif" font-size="14" font-weight="700" letter-spacing="2">AGENT REGISTRY</text><g font-family="Arial,Helvetica,sans-serif"><g><rect x="95" y="420" width="330" height="95" rx="12" fill="#09111c" stroke="#26364b"/><text x="115" y="452" fill="#f4f7fb" font-size="20" font-weight="700">Research Agent</text><text x="115" y="477" fill="#8291a7" font-size="13">research · information_retrieval</text><text x="115" y="501" fill="#58dcff" font-size="12">web-search · cached-search</text></g><g><rect x="445" y="420" width="330" height="95" rx="12" fill="#09111c" stroke="#26364b"/><text x="465" y="452" fill="#f4f7fb" font-size="20" font-weight="700">Analysis Agent</text><text x="465" y="477" fill="#8291a7" font-size="13">analysis · comparison</text><text x="465" y="501" fill="#58dcff" font-size="12">data-lookup</text></g><g><rect x="95" y="530" width="330" height="95" rx="12" fill="#09111c" stroke="#26364b"/><text x="115" y="562" fill="#f4f7fb" font-size="20" font-weight="700">Writing Agent</text><text x="115" y="587" fill="#8291a7" font-size="13">writing · summarization</text><text x="115" y="611" fill="#58dcff" font-size="12">document-writer</text></g><g><rect x="445" y="530" width="330" height="95" rx="12" fill="#09111c" stroke="#26364b"/><text x="465" y="562" fill="#f4f7fb" font-size="20" font-weight="700">Quality Agent</text><text x="465" y="587" fill="#8291a7" font-size="13">validation · quality_control</text><text x="465" y="611" fill="#58dcff" font-size="12">quality-check</text></g></g><rect x="825" y="325" width="680" height="330" rx="18" fill="#0c1624" stroke="#26364b"/><text x="850" y="365" fill="#f4f7fb" font-family="Arial,Helvetica,sans-serif" font-size="29" font-weight="800">Permission Matrix</text><text x="850" y="393" fill="#58dcff" font-family="Arial,Helvetica,sans-serif" font-size="14" font-weight="700" letter-spacing="2">TOOL REGISTRY</text><g font-family="Arial,Helvetica,sans-serif" font-size="14"><text x="860" y="432" fill="#f4f7fb" font-weight="700">Tool</text><text x="1085" y="432" fill="#f4f7fb" font-weight="700">Category</text><text x="1250" y="432" fill="#f4f7fb" font-weight="700">Authorized Agent</text><line x1="850" y1="445" x2="1475" y2="445" stroke="#26364b"/><text x="860" y="478" fill="#58dcff">web-search</text><text x="1085" y="478" fill="#8291a7">research</text><text x="1250" y="478" fill="#8291a7">Research Agent</text><line x1="850" y1="492" x2="1475" y2="492" stroke="#26364b"/><text x="860" y="525" fill="#58dcff">cached-search</text><text x="1085" y="525" fill="#8291a7">research</text><text x="1250" y="525" fill="#8291a7">Research Agent</text><line x1="850" y1="539" x2="1475" y2="539" stroke="#26364b"/><text x="860" y="572" fill="#58dcff">data-lookup</text><text x="1085" y="572" fill="#8291a7">analysis</text><text x="1250" y="572" fill="#8291a7">Analysis Agent</text><line x1="850" y1="586" x2="1475" y2="586" stroke="#26364b"/><text x="860" y="619" fill="#58dcff">document-writer</text><text x="1085" y="619" fill="#8291a7">writing</text><text x="1250" y="619" fill="#8291a7">Writing Agent</text></g><rect x="70" y="690" width="1435" height="125" rx="18" fill="#081713" stroke="#1e6548"/><text x="96" y="730" fill="#58dcff" font-family="Arial,Helvetica,sans-serif" font-size="14" font-weight="700" letter-spacing="2">NORMAL EXECUTION</text><text x="96" y="772" fill="#f4f7fb" font-family="Arial,Helvetica,sans-serif" font-size="25" font-weight="800">All orchestration stages completed successfully.</text><text x="1360" y="770" fill="#52e69b" font-family="Arial,Helvetica,sans-serif" font-size="30" font-weight="900" filter="url(#glow)">COMPLETE</text></svg>